<svg xmlns="http://www.w3.org/2000/svg"  width="75" height="501" ><path d="M20.5 6.5c13.337-.167 26.67 0 40 .5 1.333 1.333 1.333 2.667 0 4l-39 1c-4.167.167-6.333 2.333-6.5 6.5-.5 119-.667 238-.5 357a313 313 0 0 1 25 .5c1.333 1.333 1.333 2.667 0 4a313 313 0 0 1-25 .5c.166 12.338 0 24.671-.5 37-1.333 1.333-2.667 1.333-4 0-.667-133-.667-266 0-399 .555-6.715 4.055-10.715 10.5-12ZM-.5 443.5v-3c3.228-.914 6.561-1.247 10-1-.165-3.35.002-6.683.5-10 1.333-1.333 2.667-1.333 4 0 .498 3.317.665 6.65.5 10a40.911 40.911 0 0 1 9 .5c1.333 1.333 1.333 2.667 0 4a40.911 40.911 0 0 1-9 .5 50.442 50.442 0 0 1-.5 10c-1.333 1.333-2.667 1.333-4 0a50.438 50.438 0 0 1-.5-10c-3.439.247-6.772-.086-10-1ZM9.5 463.5c1.322-.17 2.489.163 3.5 1a106.01 106.01 0 0 0 2 17l1.5 1.5 14 1c1.333 1.333 1.333 2.667 0 4-5 .667-10 .667-15 0-4.02-1.868-6.187-5.035-6.5-9.5-.778-5.084-.611-10.084.5-15Z" fill="#9D9D9C" stroke="#fff" stroke-width="3" style="opacity:1"/></svg>